<?xml version="1.0" encoding="UTF-8"?>
<svg id="Layer_1" xmlns="http://www.w3.org/2000/svg" version="1.1" viewBox="0 0 487.9 679.3">
  <!-- Generator: Adobe Illustrator 29.6.1, SVG Export Plug-In . SVG Version: 2.1.1 Build 9)  -->
  <defs>
    <style>
      .st0 {
        fill: #fff;
      }
    </style>
  </defs>
  <path class="st0" d="M454,389.3l2.5-1c8.4-7.5,31-26.7,28.1-39s-19.6-19-27-21c-16.5-4.6-38.3,7.4-51.9,16.2-31.9,20.9-44.8,58.1-73.2,82.8s-36.3,26.1-46.2,28.8-6.1,1.4-5.2-1.7c4.4-.1,31.6-14.8,32-16.5-.8-2.6-3.6-3.3-5.4-5.6-18.1-21.9,9.1-73.8,21.6-95.2,8.6-14.6,17.9-24.2,27.6-37.4,15.6-21.2,27.5-43.6,44.2-64.8s72-78.4,72-99v-16.5c-2.6-.4-1.6.3-2.1,1.4-3.7,7.5-8.6,13.9-16.9,17.1s-4.4,0-7.6-.2-3,.9-4.8.7c-2.7-.3-5.4-2.2-8-2.9l-.6-7.1c3.9-.9.7,3.5,2.6,5.1s5.9,2.2,7.9,2,1-2.5,2.9-2.2,3.1,2.7,4,2.8,8-4.2,9.4-5.3c5.8-4.5,13.6-14.7,6.6-21.4-11.8-11.2-26.6,10.9-34,18-12.3,11.8-25.7,25.7-38.5,36.5-17.9,15.2-36.7,23.8-53.5,41.5-23.4,24.6-53.4,60.4-82,78-1.6,1-8,5.3-9.5,4-.4-2.1,1-2.3,2.3-3.2,6.6-5.1,14.5-9.3,21.2-14.8,16.4-13.5,23.9-34.3,34.4-52.6,15.1-26.6,30.2-53.1,45.3-79.7s49.2-86.2,45.7-115.1c-1.5-12.6-14-23.3-26.6-16.8s-22.8,29.9-8.7,32.1,30.2-10,28.4-24.9c6.1.6,1.6,11.7-.6,14.9-7.7,11.4-33.9,22.5-35.4,2.1-11.6,16.1-20.4,34.9-32.2,51.3-18.5,25.8-43.2,49.8-61.6,75.4-6.7,9.2-8.5,17.3-13.3,26.7-11.5,22.3-30.6,54.3-47.3,72.7s-9.3,10-10.5,9c19-25.3,39.8-52.2,53.9-80.6,15.8-31.9,33-59.9,49.9-91.1,4.6-8.5,10.5-15.9,13.9-25.1,5.1-13.9,8.9-28.3,2.2-42.3l-3,11.5c-5.1,10.5-20.3,19.4-31.9,15.8-5.1-1.6-4.8-5.8-2.2-4.8,14.3,11.9,46.1-17.5,28-28.9-10.5-6.6-19.9,6.9-24.1,14.8-18.5,34.4-38.9,62.1-61.2,93.8-25.8,36.5-38.3,80.5-57.4,120.6-5.3,11.1-11.8,21.6-17.6,32.4s-2.3,9.5-6.6,9.9c-1.6-1.8,18.8-37.3,21.2-42.3,17-35.6,30.1-80,51.4-112.6,4.8-7.3,19.5-22.9,19.4-30.7s-11.4-.4-14,2.1l-9,14.5c2.2,2.1,14.3-9.1,16.5-10s1.6-.3,1.5.5c-.9,3-9.4,9.7-12.3,10.7s-5.2.3-7.7,1.3c-6.9,2.7-29.4,34.3-34.8,42.2-24.4,35.5-35.7,77-51.7,116.3-16.6,40.8-33.2,81.5-47.7,123.3-17.1,49.1-27,100.4-63.3,140.7-.8.9-3.4,3.4-3.4.6s13.7-19,15.8-22.2c29.4-45.1,39-94.2,56.7-144.3,17.9-50.6,38.6-102.3,59-152,19.7-48,35.8-67.3,67.4-106.6s14.2-28.7,30.7-19.6l1.8-.9c9.7-16.5,22-31.7,31.9-48.1s13.5-29.8,21.6-35.4c6.5-4.5,18.7-5.4,23.9.9,14.5,17.4,5.9,37.6-.8,56.2l-39.2,68.3c3.9-2.1,5-6.6,7.6-9.9,13.9-18,30-35.6,43.2-53.8,15-20.6,25.7-43.7,38.8-65.2s27.9-21.4,38.2-4.4c9.2,15.3,1.7,34.4-3.8,49.8-15.6,43.8-42.2,82.7-63.2,123.8s-27.1,44.3-38.9,67.6l5.5-3.9c23.2-21.4,41.9-48,67.6-66.5,5.8-4.2,12.4-7.5,18.2-11.8,24-17.6,44.6-43.2,67.2-62.8,11.1-6.1,21.1-4.9,25,8,5.9,19.7-2.4,38.3-13.7,54.3-20,28.7-48.3,54.9-69.2,83.8-10.5,14.4-18.8,30.3-29.2,44.8-22.6,31.6-40,50.4-52.9,89.1-5.4,16.2-11.4,39.8,6.8,49.8,25.4-16.9,39.9-42.7,58.2-65.8s49.5-47.6,75.8-47c12.8.3,39.8,16.1,37.4,31.2s-36.8,40-48.7,55.3c-5.1,6.6-7.2,13.4-12.1,19.9-24.3,32.9-58.2,63-80,99-29.9,23.6-64.9,53.6-98.3,71.7-16.3,8.9-33.9,11.4-50.6,18.4-29.1,12.2-52,37.3-73,60-.9,1.3-3-.5-3-1s5.9-6.9,7-8c18.2-20.3,45.8-44.5,71-55,17.3-7.2,33.4-9.1,50.3-18.7s52.8-34.9,74.6-51.4c25.8-19.5,42.7-49.8,63.1-74.9s30.2-33,43.2-54.8c6-10,15.5-16.8,22.8-25.7-20.1,1.5-22.3-27.2-13.4-39.9s21.8-15.9,28.8-14,2.1,1.6.6,2.5c-15.4,2.6-32.7,10.5-32,28.9s4.5,21,12.4,19.6c1-.2,0-3.1,2.6-2-2.3,4.5,1.3,1.4,1,5Z"/>
  <path class="st0" d="M150,331.3l.9-4.6,23.1-39.4c-.1,5-3.5,10.2-5.8,14.7-4.1,8-10.1,19.8-15,27s-1.1,2.7-3.2,2.3Z"/>
</svg>