<?xml version="1.0" encoding="UTF-8"?>
<svg id="Layer_1" xmlns="http://www.w3.org/2000/svg" version="1.1" viewBox="0 0 751.1 1371.6">
  <!-- Generator: Adobe Illustrator 29.6.1, SVG Export Plug-In . SVG Version: 2.1.1 Build 9)  -->
  <defs>
    <style>
      .st0 {
        fill: #fff;
      }
    </style>
  </defs>
  <path class="st0" d="M449,818.9c15.5,56.9,26.8,114.9,32.1,173.8,65.9,11,146.9,56.5,151.9,130.6,1.8,27.3,2.8,65,1.1,92-5.6,86.3-100.6,139.2-176.9,152.1-92.9,15.8-248.8-12.5-278.7-117.7-8.3-29.2-7.7-93.1-5.5-124.5,5.1-73.5,77.3-114.4,140.8-131.7l7.8-91.3c-33.4-26-67.6-51-98.6-79.9-27.7-25.8-56.3-65.8-88.3-83.7s-72.7-20-79.5-69.5c-3.1-22.6,1.3-51.4-2.2-70.8s-5.6-13.6-7.2-18.8c-16.4-54.7-13.8-115-31.5-170.5s-8.1-19.2-11.3-28.7-6.4-19.7,4.5-24.6c17.6-7.9,42.6,10.4,49.7,26.4l6.8,13.7C48.9,304,21.9,214.3,12.9,121.4c-2.5-26.1-8.5-91.4,7-112s35.3-8.3,49.3.7,24.3,24.1,36.2,36.8c56.3,60.1,138.1,95.8,217.5,114.5,48.6,11.5,98.1,13,146,27,13.2,3.9,26.7,9.9,40,13,22.4,5.2,64.4,5.2,81.9,16.1s12.7,47,37.2,59.8,57.3-10.7,86.4-1.4c9,2.9,30.8,15.8,34.7,24.3,6.1,13.5-3.6,49.1-7.5,63.9-10.5,39.7-24.9,81.6-38.7,120.3-20.6,57.8-43.4,118.8-82,167-27.5,34.2-58.4,69.4-87,103-23.6,27.8-48.3,54.7-84.9,64.6ZM599.9,235.9c-.7-4.4-3.3-9-6.5-12-14-12.9-63.5-13.6-84.5-18.5s-34.4-11.6-51.8-16.2c-29.4-7.8-56.9-9.8-86.5-14.5-90.6-14.3-198.9-52.2-263.2-119.8C90,36.5,67.1.9,37.5,4c-8.4.9-20,8.6-18.2,17.9,6.1,31.6,68.4,76.3,95.1,93,57.9,36.3,124.6,63.3,192.3,74.7,49.8,8.4,99.8,4.1,147.5,22.5,9.9,3.8,18.2,9.7,27.5,13.5,23.1,9.5,66.8,13.1,91.8,12.3s17.8-2.1,26.5-2ZM746.9,310.9c-49.1,36-121.6-7.3-141.5-57-1.1-2.7-4-14.6-5.1-14.9-3.8.6-8.2,1.6-11.9,1.9-31,2.4-77.7,0-106.7-11.2-10.6-4.1-20.1-10.6-31.2-14.8-47.2-17.7-99.1-13.4-148.7-22.3-85.4-15.3-178.7-57.8-244.3-114.7S24.4,47.4,17.9,26.9c-.3-.3-1.3.6-1.5,1-.9,1.9-2.3,16.3-2.5,19.5-6,106.9,32.8,228.1,51.6,333.5,2.4,13.3,3.1,26.9,6.6,39.9,25.1-.5,32.8,28.5,37.2,48.3,5.1,22.7,7.7,45.1,14.2,67.8,15.3,53.1,42,94.8,78,136,77.8,32.1,115.9,141.7,207,147,79.9,4.6,122.8-70.2,167.5-123.5,35.5-42.3,61.7-67.3,85.8-119.2,29.5-63.4,56.5-142.5,74.9-210.1s10.5-37.1,10.3-56.2ZM628.9,281.9c6.6,9.3,17.8,18,27.7,23.8,25.6,14.9,56.2,21.8,83,5.4,10.6-6.5,8.4-8.5-.1-16.2s-24.5-16.3-36.3-17.7c-14.7-1.7-29.1,6.4-43.7,7.7-10,.9-21.1.4-30.5-3ZM66.9,421.8c-4.4-21.4-13.8-50.3-35.3-60.1-8.4-3.8-22.4-7.3-27.7,2.7,16,8.4,20.5,27.8,23.8,44.2s-2.5,3-3.9-.1c-3-6.6-3.1-16.5-6.7-24.3s-11.3-18.1-14.2-15.3c9.2,22.8,17.2,44.8,22.5,69,11,49.7,11.4,101.3,26.5,150,1.7.2.9-2.3,1-3.5.3-6.7.3-14.4,0-21.1-.4-10.7-3.6-27-2.3-37.1s5.8-11.5,13.3-12.9c-.5-10.6-1.1-21.3-2.1-31.9-1.1-13-6.1-36.4-5-48s4-10.1,10-11.6ZM195.9,671.9c-13.5-18-29-34.4-41-53.5-21-33.5-34.3-71.9-42.5-110.5s-8-70.6-29.1-80.9c-7-3.4-19.7-4.1-22.4,4.9,14.8,2.6,14.9,27.7,14,39.5s-1.4,14.7-4.6,9.5c-.3-14.6,5.1-37.1-9.5-46l7,79c21.2.2,27.9,28,31.7,44.8,5.5,24.4,6.9,49.7,15.6,73.4,5.7,15.5,8.6,20.6,24.2,26.8s38.1,6.8,56.5,13ZM444.9,819.9c-37.4,10.2-74.6,0-105.3-22.2-49.9-36.2-88.5-106.4-148.7-123.3-19-5.3-37-5.6-56-13-1.9-.8-7.2-4.3-7.7-4.4-1.4-.2-2.5,1.8-2.8,1.9-2.6,0-13.7-27.9-15-32-8.6-26.9-11-84.2-28-103-5.3-5.9-15-9-22.2-5.2-7.9,4.1-.9,9.9,1.5,16,4.1,10.7,5,22,4.2,33.3h-3c-1.1-12.1-.3-27-8-37,5.8,38.9,1.1,78.4,3,117.5,1.6,33.3,4.6,50.7,35.3,66.7s49.6,18.7,74.7,43.3,51.1,55.3,81.5,81.5c38.4,33,79.7,63,122.4,90.1l-1.4,3.9-44.5-29c-5,56.7-9.3,113.7-11,170.5-.5,18.5-3.7,32,5.1,49.8,26.8,53.8,120.9,62.3,152.6,10,15.1-24.9,8.6-73.7,7.2-102.8s-.3-20-1-30c-4.5-61.8-16.3-123-33-182.5ZM313.9,997.9c-73.5,18.8-153.4,72.8-134.3,159.8s204.6,136.3,299.8,112.1c69.6-17.7,167-79.1,146.9-163.7-14.7-61.9-87.1-99.8-145.3-109.2,1.9,13.4,1.5,27,2,40.5.7,21.4,3.7,49,2,69.9-3.8,47.5-55.2,72.3-98.4,66.4-43.6-6-83.1-40.3-77.7-87.4l5-88.5ZM176.9,1163.9c.6,28.6-2.5,57.3,5.3,85.2,27.7,98.9,174,128,262.1,116.6,84.6-10.9,186.3-65.5,185.6-162.4l.9-5.9-1.4-44.6c-2.5,4.2-3.1,9.4-5,14-23.9,57.8-93.1,95.1-151.5,108.5-93.1,21.4-245.8,3.7-289.9-95.2l-6.1-16.4Z"/>
  <path class="st0" d="M335.3,585.5c-14.3-15-5.2-39.4,8.2-51.6,1.2-.3,2.6,1.1,2.4,2.4s-10.2,13.4-12,19.1c-9.7,30.3,12.8,29.9,30.4,41.7,13.7,9.3,25.9,28.6,44.7,25.4s24.1-15.3,34.4-21.6c8.1-4.9,21.3-9,26.9-16.1,9-11.3,5.7-27.3-3.4-37.5s-4.6-3-4.9-4.1c-2.2-6.9,6,0,7.9,2.1,12.1,12.9,13.4,34.4-1,46.1-6.3,5.1-15.7,7.7-22.9,12.1-15.6,9.3-29.3,28.5-50.1,21.9-12.9-4.1-22.3-17.3-33.3-24.7s-21.1-8.5-27.4-15.1Z"/>
  <path class="st0" d="M362.7,653.1c19-2.6,28.4,8.2,44.8,6.8s14.7-5.8,22.2-6.8c27.1-3.7,46.3,16,72.5,7.5,1.3-.4,10.8-6.3,10.7-2.3s-17.1,8.2-20.5,8.5c-22.9,1.8-41.6-15.1-64.5-9.5-10.1,2.4-14.7,7.2-26.5,6.6s-14.6-4.7-22.4-6.6c-18-4.4-29.4,6.2-46,9.1-12.6,2.2-26.1.9-35.6-8.5l1-3c13.4,10.2,25.2,10.2,40.9,5.9s15.6-6.6,23.3-7.7Z"/>
  <path class="st0" d="M468.9,389.9c0,3.5-4.7,3.8-6.9,5.6-15.1,11.8-22.5,46.7-24.9,65.1-5.4,40.8-1.4,83.8,6.6,123.9-.2,1.3-3,2-3.8,1.5-1.5-1-5.3-30.4-5.9-34.6-4.7-38.3-5.4-82.4,4.9-119.8,4-14.6,12.4-40.2,29.9-41.6Z"/>
  <path class="st0" d="M308.7,423.1c.3.6.3,2.7.2,2.8-1,1-14.9-6.4-18.2-7.3-27.7-7.5-53.9,6.6-82.3,4.3-14.7-1.2-35.8-10.9-48.4-18.6-12.8-7.9-23.7-20.1-40.1-19.9l-1-3.5c21.5-.8,36,17.6,54,26.5,7.7,3.9,19.4,8.3,27.8,10.2,32.3,7.2,62.8-12.8,94.4-1.4,2.2.8,12.7,5.6,13.5,6.9Z"/>
  <path class="st0" d="M671.9,388.9c2.9,4-11.9,2.9-13.4,3.1-23,2.8-38.3,25.7-61.6,30.4-40.2,8.2-69.1-20.7-108,6-1.4.9-1.9,2-4,1.5-2.3-2.3,7.6-9.2,9.3-10.2,29.1-16.6,63,2.7,94.2.2s49.2-37.6,83.5-31Z"/>
  <path class="st0" d="M313.9,673.8l.6-3c9,.3,17.9.7,26.9,1,10.4.4,21.7,0,32,1,15.4,1.4,19.6,11.9,37.3,7.3s17.3-7.3,29.7-8.3c15.5-1.2,33.5-2.4,48.9-3.1s5.7-.7,7.5,1.5c-1.2,1.4-2.7,2.1-4.5,2.4-19.5,3.3-43,.5-61.7,4.3-13.2,2.7-19.4,10.1-35,7.5s-8.4-4.1-12.5-5.5c-13.2-4.7-36.1-2.2-50.8-3.2-6.1-.4-12.4-1.3-18.5-2.1Z"/>
  <path class="st0" d="M480.9,680.9c.4,2-.5,2.7-1.5,4-12.3,17-28.2,28.9-50,30-5.8.3-10.8-1.1-16-1.1-33.2-.2-62.1,7.7-84-25-.9-1.3-3.2-5.3,0-5,1.7.3,12,12.5,15,15,18.6,15.6,31.2,11.9,53,10.9,33.3-1.5,46.3,8.2,72.6-19.4s8-12.3,11-9.5Z"/>
  <path class="st0" d="M363.9,543.9c.6-34.1,3.4-69.4-2.3-103.2s-7.6-34.1-17.2-42.8-14.3-4.8-10-9c19.6,4.7,26.6,29.3,30.2,46.8,7,34.6,4.1,71.4,3.2,106.5l-.8,1.2-3.1.4Z"/>
</svg>